<svg width="400" height="400" viewBox="0 0 400 400" fill="none" xmlns="http://www.w3.org/2000/svg">
<rect width="400" height="400" rx="73" fill="url(#paint0_radial_205_17)"/>
<path d="M89.9441 250.388L161.182 188.296L129.495 220.559C123.829 225.994 110.315 238.893 101.59 247C90.6835 257.134 90.0253 262.652 88.9307 264.548C87.8361 266.444 88.7841 266.991 90.0838 269.848C91.3835 272.705 98.2731 280.475 114.095 294.665C126.752 306.017 143.837 312.96 150.798 315.013C160.054 317.661 167.735 312.433 170.418 309.488C176.839 300.556 185.495 279.433 187.909 274.085C190.925 267.401 198.187 252.635 200.086 242.777C201.986 232.92 200.054 229.698 197.236 222.173C194.94 216.039 180.264 200.798 174.989 195.643C173.808 194.672 173.139 194.043 173.105 193.916C173.08 193.824 173.793 194.474 174.989 195.643C178.458 198.495 186.347 204.296 195.575 208.996C207.948 215.296 214.961 215.554 230.656 207.342C243.212 200.772 261.721 182.725 269.406 174.523C296.119 151.606 269.99 134.836 267.778 133.559C229.499 107.414 198.093 75.6307 187.174 63.0073C205.608 79.9699 240.829 105.95 263.006 117.743C290.728 132.484 328.867 145.235 331.591 143.437C333.769 141.999 337.322 136.915 338.826 134.554C338.076 137.07 335.918 143.239 333.291 147.789C298.089 186.87 265.226 208.763 252.071 215.493C241.548 220.877 230.741 222.277 226.652 222.304C223.316 239.758 215.582 279.277 211.337 297.723C206.03 320.78 205.323 327.113 196.788 333.139C188.253 339.165 160.407 331.936 142.067 324.297C123.727 316.657 88.3633 290.342 82.5456 275.608C77.8914 263.82 85.5387 253.883 89.9441 250.388Z" fill="white"/>
<path d="M177.695 57.5343C166.825 92.6591 149.508 167.653 165.316 184.785C154.189 163.193 171.293 82.4873 177.695 57.5343Z" fill="white"/>
<path d="M223.525 81.0453C149.978 27.4604 198.979 44.2634 232.673 59.3631C224.238 56.4593 206.763 50.3866 204.342 49.3258C201.316 47.9999 181.516 42.8883 199.416 57.8573C217.316 72.8263 208.3 65.0926 220.16 74.4682C229.649 81.9687 258.507 98.2929 271.75 105.517C382.979 158.781 295.66 94.7515 274.979 81.6818C292.807 92.3963 314.828 106.795 330.734 122.299C343.459 134.701 334.073 134.759 327.789 133.237C287.474 121.337 260.811 102.572 223.525 81.0453Z" fill="white"/>
<defs>
<radialGradient id="paint0_radial_205_17" cx="0" cy="0" r="1" gradientUnits="userSpaceOnUse" gradientTransform="translate(18.5 -12.5) rotate(51.9199) scale(563.426)">
<stop stop-color="#FFA370"/>
<stop offset="0.665423" stop-color="#883D1A"/>
</radialGradient>
</defs>
</svg>
